<svg xmlns="http://www.w3.org/2000/svg" xmlns:xlink="http://www.w3.org/1999/xlink" viewBox="0 0 167.846 125.408">
  <defs>
    <style>
      .cls-1 {
        fill: url(#linear-gradient);
      }

      .cls-2 {
        fill: url(#linear-gradient-2);
      }

      .cls-3 {
        fill: url(#linear-gradient-3);
      }

      .cls-4 {
        fill: url(#linear-gradient-4);
      }

      .cls-5 {
        fill: #d37a53;
      }

      .cls-6 {
        fill: #c96947;
      }

      .cls-7 {
        fill: #42b790;
      }

      .cls-8 {
        fill: #4fc6a2;
      }

      .cls-9 {
        fill: #aa4e35;
      }

      .cls-10 {
        fill: #fff;
      }

      .cls-11 {
        fill: url(#linear-gradient-5);
      }

      .cls-12 {
        fill: url(#linear-gradient-6);
      }

      .cls-13 {
        fill: url(#linear-gradient-7);
      }

      .cls-14 {
        fill: url(#linear-gradient-8);
      }

      .cls-15 {
        fill: url(#linear-gradient-9);
      }

      .cls-16 {
        fill: url(#linear-gradient-10);
      }

      .cls-17 {
        fill: url(#linear-gradient-11);
      }

      .cls-18 {
        fill: url(#linear-gradient-12);
      }

      .cls-19 {
        fill: url(#linear-gradient-13);
      }
    </style>
    <linearGradient id="linear-gradient" x1="0.587" y1="0.608" x2="0.779" y2="0.847" gradientUnits="objectBoundingBox">
      <stop offset="0" stop-color="#ffe5a4"/>
      <stop offset="0.981" stop-color="#f9ce78"/>
    </linearGradient>
    <linearGradient id="linear-gradient-2" x1="0.448" y1="0.354" x2="0.595" y2="0.737" gradientUnits="objectBoundingBox">
      <stop offset="0" stop-color="#3cf2bf"/>
      <stop offset="1" stop-color="#19b3bc"/>
    </linearGradient>
    <linearGradient id="linear-gradient-3" x1="0.304" y1="0.088" x2="0.695" y2="0.912" xlink:href="#linear-gradient-2"/>
    <linearGradient id="linear-gradient-4" x1="0.507" y1="0.276" x2="0.6" y2="0.429" gradientUnits="objectBoundingBox">
      <stop offset="0" stop-color="#ffe5a4"/>
      <stop offset="1" stop-color="#f9ce78"/>
    </linearGradient>
    <linearGradient id="linear-gradient-5" x1="0.008" y1="-0.064" x2="0.627" y2="0.649" gradientUnits="objectBoundingBox">
      <stop offset="0" stop-color="#fff"/>
      <stop offset="1" stop-color="#d1d1d1"/>
    </linearGradient>
    <linearGradient id="linear-gradient-6" x1="0.306" y1="0.407" x2="0.6" y2="0.468" gradientUnits="objectBoundingBox">
      <stop offset="0" stop-color="#e8e8e8"/>
      <stop offset="1" stop-color="#b7b6b6"/>
    </linearGradient>
    <linearGradient id="linear-gradient-7" x1="0.333" y1="0.496" x2="0.661" y2="0.5" xlink:href="#linear-gradient-5"/>
    <linearGradient id="linear-gradient-8" x1="0.009" y1="-0.063" x2="0.627" y2="0.646" xlink:href="#linear-gradient-5"/>
    <linearGradient id="linear-gradient-9" x1="0.306" y1="0.411" x2="0.6" y2="0.473" xlink:href="#linear-gradient-6"/>
    <linearGradient id="linear-gradient-10" x1="0.316" y1="0.505" x2="1.486" y2="0.489" gradientUnits="objectBoundingBox">
      <stop offset="0" stop-color="#83e1eb"/>
      <stop offset="1" stop-color="#2688b9"/>
    </linearGradient>
    <linearGradient id="linear-gradient-11" x1="0.025" y1="1.32" x2="0.511" y2="0.593" xlink:href="#linear-gradient-10"/>
    <linearGradient id="linear-gradient-12" x1="0.257" y1="0.666" x2="0.677" y2="0.42" xlink:href="#linear-gradient-10"/>
    <linearGradient id="linear-gradient-13" x1="0.459" y1="0.498" x2="0.911" y2="0.49" gradientUnits="objectBoundingBox">
      <stop offset="0" stop-color="#c1c1c1"/>
      <stop offset="1" stop-color="#9e9e9e"/>
    </linearGradient>
  </defs>
  <g id="Beach_illustration" data-name="Beach illustration" transform="translate(-35 -193.509)">
    <g id="Group_2" data-name="Group 2" transform="translate(35 218.485)">
      <g id="Group_1" data-name="Group 1">
        <path id="Path_1" data-name="Path 1" class="cls-1" d="M81.854,0l81.854,47.251L81.854,94.521,0,47.251Z"/>
        <path id="Path_2" data-name="Path 2" class="cls-2" d="M106.363,26.041a50.049,50.049,0,0,1,11.292-5.381L81.854,0,0,47.251,38.472,69.462C44.246,63.335,55.6,54.34,71.6,55.577,95.523,57.463,87.942,37.471,106.363,26.041Z"/>
      </g>
      <path id="Path_3" data-name="Path 3" class="cls-3" d="M0,246.511V240.6l38.472,22.211v5.911Z" transform="translate(0 -193.349)"/>
      <path id="Path_4" data-name="Path 4" class="cls-4" d="M321.136,240.6l-81.854,47.27L195.9,262.811v5.911l43.382,25.059,81.874-47.27Z" transform="translate(-157.428 -193.349)"/>
    </g>
    <g id="Group_12" data-name="Group 12" transform="translate(154.853 193.509)">
      <path id="Path_24" data-name="Path 24" class="cls-5" d="M3.41,202.112A7.223,7.223,0,0,1,0,196.22c0-3.932,13.613-55.015,23.83-60.92l3.41,1.96s-13.613,19.91-13.613,58.96a7.206,7.206,0,0,1-3.4,5.892A7.237,7.237,0,0,1,3.41,202.112Z" transform="translate(0 -117.624)"/>
      <path id="Path_25" data-name="Path 25" class="cls-6" d="M67.043,145.953l-1.137-.653a72.907,72.907,0,0,0-4.324,7.917c-13.169,34.255-8.675,48.038-9.851,52.676-.758,3-3.854,4.821-5.931,5.722a6.6,6.6,0,0,0,4.233-.81,7.206,7.206,0,0,0,3.4-5.892C53.43,165.877,67.043,145.953,67.043,145.953Z" transform="translate(-39.816 -126.317)"/>
      <path id="Path_26" data-name="Path 26" class="cls-7" d="M23.4,41.013a6.06,6.06,0,0,0-2.469-.5,3.152,3.152,0,0,1,2.208-.039,10.531,10.531,0,0,0-4.207-3.75,19.168,19.168,0,0,0-2.992.157,4.131,4.131,0,0,1,2.025-.666c-.523-.274-1.058-.536-1.607-.8a13.378,13.378,0,0,0-2.012-.784,11.063,11.063,0,0,0-2.43.523,3.748,3.748,0,0,1,1.79-.692c-3.58-.928-7.6-.6-10.295.954C.013,37.355,0,37.368,0,37.368c2.09-1.215,4.52-.745,6.859.483A3.169,3.169,0,0,1,8.871,37.6s-.588.274-1.241.666a23.567,23.567,0,0,1,2.7,1.907,5.092,5.092,0,0,1,2.365-.5,2.588,2.588,0,0,0-1.711,1.032c1.019.875,1.96,1.8,2.8,2.665a2.463,2.463,0,0,1,1.633-.5,9.62,9.62,0,0,0-1.228.928c1.738,1.868,2.848,3.358,2.848,3.358l3.41,1.96,3.4-1.973V43.234A6.061,6.061,0,0,0,23.4,41.013Z" transform="translate(0 -29.516)"/>
      <path id="Path_27" data-name="Path 27" class="cls-7" d="M166.129,7.068a7.155,7.155,0,0,0-1.711-1.228,2.872,2.872,0,0,1,1.5.523,8.05,8.05,0,0,0-2.339-3.318c-.745-.274-1.542-.536-1.542-.536a11.559,11.559,0,0,1,1.306.34A15.164,15.164,0,0,0,156.2,0a5.465,5.465,0,0,1,2.077,2.482c.157-.222.3-.47.3-.47l-.261.549a15.683,15.683,0,0,1,1.137,4.4c.2-.209.457-.444.64-.444l-.575,1.019c.091.862.144,1.711.17,2.5a2.272,2.272,0,0,1,1.124-.222,11.329,11.329,0,0,0-1.124.64,32.031,32.031,0,0,1-.091,3.305v3.919s6.807,0,6.807-8.335A8.344,8.344,0,0,0,166.129,7.068Z" transform="translate(-135.793 0)"/>
      <path id="Path_28" data-name="Path 28" class="cls-8" d="M194.942,152.1a4.9,4.9,0,0,1,1.176.026,23.632,23.632,0,0,0-.314-7.669,5.3,5.3,0,0,0-1.659-.118,6.155,6.155,0,0,1,1.463-.666,14.057,14.057,0,0,0-2.6-5.16,8.658,8.658,0,0,0-2.038.614,2.611,2.611,0,0,1,1.62-1.111,13.92,13.92,0,0,0-3.384-2.717H182.4v3.932a14.372,14.372,0,0,1,2.639,2.339,4.325,4.325,0,0,1,1.437-.51,6.655,6.655,0,0,0-.9,1.11,24.711,24.711,0,0,1,2.025,2.77,3.377,3.377,0,0,1,1.411-.366,13.611,13.611,0,0,0-1.019,1.006,29.012,29.012,0,0,1,2.169,4.546,1.777,1.777,0,0,1,1.215-.091,4.834,4.834,0,0,0-.954.784,35.541,35.541,0,0,1,1.293,4.69,1.337,1.337,0,0,1,.9-.118,6.842,6.842,0,0,0-.771.771,46.893,46.893,0,0,1,.758,8.61,44.98,44.98,0,0,0,3.436-12.032C195.478,152.388,194.942,152.1,194.942,152.1Z" transform="translate(-158.57 -117.624)"/>
      <path id="Path_29" data-name="Path 29" class="cls-8" d="M199.188,72.972a1.289,1.289,0,0,1,.967.235,31.518,31.518,0,0,0-.849-6.271l-1.32-.457a2.68,2.68,0,0,1,1.019-.588,12.281,12.281,0,0,0-2.391-4.533,4.88,4.88,0,0,0-1.215.5,1.5,1.5,0,0,1,.732-.993c-2.94-2.822-6.99-2.352-10.36-1.15a13.088,13.088,0,0,0-.3,1.777,4.372,4.372,0,0,1-.353-1.529,27.107,27.107,0,0,0-5.683,3.135s-6.807,5.657-3.4,5.644h6.807a13.48,13.48,0,0,1,3.175-1.372,3.822,3.822,0,0,1-.078-1.1s.274.444.627.954a8.174,8.174,0,0,1,3.214-.1,2.138,2.138,0,0,1,.523-1.163,10.548,10.548,0,0,0,.183,1.32,9.551,9.551,0,0,1,4.991,3.776c.274-.51.6-.941.954-.993a11.5,11.5,0,0,0-.3,1.947,31.477,31.477,0,0,1,3.736,10.269,70.657,70.657,0,0,0,.314-8.3C199.671,73.416,199.188,72.972,199.188,72.972Z" transform="translate(-152.208 -51.089)"/>
      <path id="Path_30" data-name="Path 30" class="cls-8" d="M59.043,118.773l-3.41-1.96c-1.881-1.084-4.808-.366-7.617,1.489a3.3,3.3,0,0,1,1.241,1.189,17.772,17.772,0,0,0-2.26-.47,19.421,19.421,0,0,0-4.455,4.808,2.658,2.658,0,0,1,1.019.274s-.732.2-1.489.47c-.026.039-.039.065-.065.1a13.82,13.82,0,0,0-1.515,6.99,4.981,4.981,0,0,1,1.306-.705s-.653.549-1.293,1.2a31.668,31.668,0,0,0,1.489,8.244s0-3.932,3.41-9.825a11.887,11.887,0,0,1,3.266-3.5c-.091-.928-.287-1.868-.287-1.868.483.157.8.758,1.006,1.359a25.676,25.676,0,0,1,4.821-2.43,10.752,10.752,0,0,0-.8-1.385,3.443,3.443,0,0,1,1.568,1.1,31.755,31.755,0,0,1,4.05-1.15l3.4-1.96Z" transform="translate(-35.2 -101.11)"/>
      <g id="Group_11" data-name="Group 11" transform="translate(19.322 11.851)">
        <g id="Group_8" data-name="Group 8" transform="translate(2.143)">
          <path id="Path_31" data-name="Path 31" class="cls-9" d="M167.71,91.258s3.41,1.973,0,3.932-3.41-1.96-3.41-1.96S164.3,89.3,167.71,91.258Z" transform="translate(-164.3 -90.71)"/>
          <path id="Path_32" data-name="Path 32" class="cls-6" d="M167.057,91.423a4.141,4.141,0,0,0-1.32-.523c-1.437.274-1.437,2.482-1.437,2.482s0,2.208,1.437,2.482a4.028,4.028,0,0,0,1.32-.523C170.466,93.4,167.057,91.423,167.057,91.423Z" transform="translate(-164.3 -90.875)"/>
        </g>
        <g id="Group_9" data-name="Group 9" transform="translate(0 1.542)">
          <path id="Path_33" data-name="Path 33" class="cls-9" d="M151.31,103.058s3.41,1.973,0,3.932-3.41-1.96-3.41-1.96S147.913,101.1,151.31,103.058Z" transform="translate(-147.9 -102.51)"/>
          <path id="Path_34" data-name="Path 34" class="cls-6" d="M150.757,103.223a4.141,4.141,0,0,0-1.32-.523c-1.437.274-1.437,2.482-1.437,2.482s0,2.208,1.437,2.482a4.028,4.028,0,0,0,1.32-.523C154.153,105.182,150.757,103.223,150.757,103.223Z" transform="translate(-147.987 -102.675)"/>
        </g>
        <g id="Group_10" data-name="Group 10" transform="translate(4.089 1.672)">
          <path id="Path_35" data-name="Path 35" class="cls-9" d="M182.61,104.058s3.41,1.973,0,3.932-3.41-1.96-3.41-1.96S179.2,102.1,182.61,104.058Z" transform="translate(-179.2 -103.51)"/>
          <path id="Path_36" data-name="Path 36" class="cls-6" d="M181.957,104.223a4.14,4.14,0,0,0-1.32-.523c-1.437.274-1.437,2.482-1.437,2.482s0,2.208,1.437,2.482a4.028,4.028,0,0,0,1.32-.523C185.366,106.2,181.957,104.223,181.957,104.223Z" transform="translate(-179.2 -103.675)"/>
        </g>
      </g>
    </g>
    <g id="Group_7" data-name="Group 7" transform="translate(147.816 263.866)">
      <g id="Group_4" data-name="Group 4" transform="translate(0 0)">
        <path id="Path_5" data-name="Path 5" class="cls-10" d="M69.5,39.9" transform="translate(-53.808 -30.896)"/>
        <path id="Path_6" data-name="Path 6" class="cls-10" d="M35.1,60.5" transform="translate(-27.169 -46.849)"/>
        <path id="Path_7" data-name="Path 7" class="cls-11" d="M11.345,65.931c.993.564,3.948,2.279,3.948,2.279s.79.451,0,.9c-.993.564-2.978,1.715-3.948,2.279a1.694,1.694,0,0,1-1.579,0L5.8,69.135s-.79-.451,0-.9c.993-.564,3.948-2.279,3.948-2.279A1.714,1.714,0,0,1,11.345,65.931Z" transform="translate(-4.204 -50.904)"/>
        <path id="Path_8" data-name="Path 8" class="cls-12" d="M15.7,78.8v.045h0v.045h0v.023h0a.022.022,0,0,1-.023.023h0a.022.022,0,0,1-.023.023h0a.022.022,0,0,1-.023.023h0L15.607,79h0l-.023.023h0l-.023.023h0l-.023.023h0l-.023.023h0c-.023,0-.023.023-.045.023h0l-.023.023h-.023c-.023,0-.023.023-.045.023h0c-.18.113-.406.226-.654.384-.519.293-1.151.654-1.737,1.015-.271.158-.541.316-.79.451a6.2,6.2,0,0,0-.564.338c-.068.045-.135.068-.2.113a2.507,2.507,0,0,1-.361.158,1.319,1.319,0,0,1-.406.045.846.846,0,0,1-.248-.023,1.38,1.38,0,0,1-.541-.18L5.838,79.251H5.816l-.023-.023h0a.635.635,0,0,1-.271-.316h0c0-.023-.023-.045-.023-.068h0v-.023h0v.248a.748.748,0,0,0,.361.632L9.831,82a1.55,1.55,0,0,0,1.534,0l3.971-2.324a.72.72,0,0,0,.361-.632V78.8Z" transform="translate(-4.247 -61.02)"/>
        <path id="Path_10" data-name="Path 10" class="cls-13" d="M11.447,30.474v.045h0v.045h0v.023h0a.022.022,0,0,1-.023.023h0a.022.022,0,0,1-.023.023h0a.022.022,0,0,1-.023.023h0l-.023.023h0l-.023.023h0l-.023.023h0l-.023.023h0l-.023.023h0c-.023,0-.023.023-.045.023h0l-.023.023h-.023c-.023,0-.023.023-.045.023h0c-.18.113-.406.226-.654.384-.519.293-1.151.654-1.737,1.015-.271.158-.541.316-.79.451a6.205,6.205,0,0,0-.564.338c-.068.045-.135.068-.2.113a2.506,2.506,0,0,1-.361.158,1.318,1.318,0,0,1-.406.045.846.846,0,0,1-.248-.023,1.38,1.38,0,0,1-.541-.18L1.588,30.925H1.566L1.543,30.9h0a.635.635,0,0,1-.271-.316h0c0-.023-.023-.045-.023-.068h0V30.5h0v.248c0,.248-1.421-14.371-1.218-14.235l5.5,3.948A2.012,2.012,0,0,0,7.3,20.39L12.688,16.4c.226-.135-1.263,14.619-1.263,14.348l.023-.271Z" transform="translate(0.003 -12.694)"/>
        <g id="Group_3" data-name="Group 3" transform="translate(0)">
          <path id="Path_11" data-name="Path 11" class="cls-14" d="M7.289.24c1.241.7,4.918,2.843,4.918,2.843s.993.564,0,1.128c-1.241.7-3.7,2.121-4.918,2.843a2.088,2.088,0,0,1-1.963,0L.386,4.21s-.993-.564,0-1.128C1.626,2.383,5.326.24,5.326.24A2.088,2.088,0,0,1,7.289.24Z" transform="translate(0.056 0.011)"/>
          <path id="Path_12" data-name="Path 12" class="cls-15" d="M12.679,16.2v.068h0a.083.083,0,0,1-.023.068h0v.023h0a.022.022,0,0,1-.023.023h0a.022.022,0,0,1-.023.023h0l-.023.023h0l-.023.023h0l-.023.023h0l-.023.023h0a.079.079,0,0,1-.045.023h0l-.023.023h0c-.023,0-.023.023-.045.023h0c-.023,0-.023.023-.045.023H12.34a.079.079,0,0,0-.045.023h0q-.338.2-.812.474c-.654.384-1.421.835-2.166,1.263-.338.2-.677.384-.993.564a8.085,8.085,0,0,1-.722.406c-.09.045-.158.09-.248.135a1.448,1.448,0,0,1-.451.18,2.187,2.187,0,0,1-.519.068c-.113,0-.2-.023-.316-.023a2.177,2.177,0,0,1-.677-.226L.429,16.764h0a.022.022,0,0,1-.023-.023h0a.079.079,0,0,0-.045-.023h0a1.046,1.046,0,0,1-.338-.406h0c0-.023-.023-.045-.023-.09H0V16.2H0v.293a.91.91,0,0,0,.451.79l4.941,2.888a1.938,1.938,0,0,0,1.918,0l4.941-2.888a.9.9,0,0,0,.451-.767l-.023-.316Z" transform="translate(0.013 -12.543)"/>
        </g>
      </g>
      <g id="Group_6" data-name="Group 6" transform="translate(1.797 8.96)">
        <g id="Group_5" data-name="Group 5">
          <path id="Path_13" data-name="Path 13" class="cls-16" d="M10.654,49.731c-.135.068-.316-.023-.5-.2a1.408,1.408,0,0,1,.18.722c.023.226-.023.519-.587.226s-.587-.654-.587-.654v-.9a4.692,4.692,0,0,1,.744.338c-.135-.135-.293-.271-.474-.429a1.585,1.585,0,0,0-.9-.429v1.151c0,.316-.18.18-.271.135s0,.068,0,.068,1.263.722,1.692.97.79.18.79-.474A3.546,3.546,0,0,0,10.654,49.731Z" transform="translate(-8.152 -46.438)"/>
          <path id="Path_14" data-name="Path 14" class="cls-17" d="M8,48.648s.384-.541,1.737.2C9.736,48.851,7.977,46.8,8,48.648Z" transform="translate(-7.979 -46.032)"/>
          <path id="Path_15" data-name="Path 15" class="cls-18" d="M10.551,48.72a2.3,2.3,0,0,0-.18-.384,3.421,3.421,0,0,0-.97-.9c-.609-.384-1.151-.451-1.263-.158s-.068.338-.068.338.2-.609,1.218.2C10.01,48.381,10.258,48.877,10.551,48.72Z" transform="translate(-8.027 -45.427)"/>
          <path id="Path_16" data-name="Path 16" class="cls-19" d="M8.27,40.177v1.038a1.262,1.262,0,0,1,.654.158v-.79c0-.135.09-.045.09-.045.113.068.158.09.271.158.722.519.609,1.083.5,1.286h0c.09.09.18.158.271.248.135-.023.293-.18.248-.609-.045-.632-1.038-1.128-1.038-1.128s-1.241-.722-1.331-.767c-.045-.068,0,.045,0,.045A.68.68,0,0,1,8.27,40.177Z" transform="translate(-7.911 -39.704)"/>
        </g>
      </g>
    </g>
  </g>
</svg>
