<svg xmlns="http://www.w3.org/2000/svg" viewBox="0 0 50.023 42.019">
  <defs>
    <style>
      .cls-1 {
        fill-rule: evenodd;
      }
    </style>
  </defs>
  <path id="ico_back" class="cls-1" d="M47.022,18.008H10.2L23.011,5.3a3.257,3.257,0,0,0,1-2.3,2.948,2.948,0,0,0-3-3,3.229,3.229,0,0,0-2.1.8h0L.9,18.809h0a3.375,3.375,0,0,0-.9,2.2H0a3.6,3.6,0,0,0,.9,2.2h0L18.909,41.219h0a3.038,3.038,0,0,0,2.1.8,2.948,2.948,0,0,0,3-3,3.229,3.229,0,0,0-.8-2.1h0L10.2,24.011H47.022a2.948,2.948,0,0,0,3-3A3.01,3.01,0,0,0,47.022,18.008Z"/>
</svg>
