<svg xmlns="http://www.w3.org/2000/svg" viewBox="0 0 54 58">
  <defs>
    <style>
      .cls-1 {
        fill-rule: evenodd;
      }
    </style>
  </defs>
  <path id="ico_logout" class="cls-1" d="M53.734,28.985a2.236,2.236,0,0,1-1,2h0l-11,10h0a5.365,5.365,0,0,1-3,1,2.741,2.741,0,0,1-3-3,2.236,2.236,0,0,1,1-2h0l5-5h-21a2.741,2.741,0,0,1-3-3,2.741,2.741,0,0,1,3-3h21l-5-5h0a2.236,2.236,0,0,1-1-2,2.741,2.741,0,0,1,3-3,5.365,5.365,0,0,1,3,1h0l11,10h0A2.236,2.236,0,0,1,53.734,28.985Zm-34-22h-13v44h13a4.481,4.481,0,0,1,4,4c0,1.9-2.1,3-4,3h-16c-1.9,0-4-1.1-4-3v-52c0-1.9,2.1-3,4-3h16c1.9,0,4,1.1,4,3A4.481,4.481,0,0,1,19.734,6.985Z" transform="translate(0.266 0.015)"/>
</svg>
