<svg id="ico_done_ring" xmlns="http://www.w3.org/2000/svg" viewBox="0 0 63.713 56.117">
  <defs>
    <style>
      .cls-1 {
        fill-rule: evenodd;
      }
    </style>
  </defs>
  <path id="TICK_1_" class="cls-1" d="M60.358,9.649h0L32.177,37.83h0a3.821,3.821,0,0,1-2.573,1.1,3.337,3.337,0,0,1-2.573-1.1h0L11.1,21.9h0A3.165,3.165,0,0,1,10,19.328a3.61,3.61,0,0,1,3.676-3.676,3.337,3.337,0,0,1,2.573,1.1h0L29.6,30.111,55.212,4.5h0a3.821,3.821,0,0,1,2.573-1.1,3.61,3.61,0,0,1,3.676,3.676A3.165,3.165,0,0,1,60.358,9.649Z" transform="translate(2.253 0.766)"/>
  <path id="Path_320" data-name="Path 320" class="cls-1" d="M50.725,28.181A22.79,22.79,0,1,1,27.936,5.146,22.483,22.483,0,0,1,44.6,12.5l3.8-3.676a27.993,27.993,0,1,0,7.719,19.236,27.173,27.173,0,0,0-.368-4.533C53.911,25.118,52.2,26.711,50.725,28.181Z"/>
</svg>
