<svg xmlns="http://www.w3.org/2000/svg" viewBox="0 0 62.599 64">
  <g id="ico_point_draw" transform="translate(-0.027 0.008)">
    <path id="Path_310" data-name="Path 310" d="M58.824,18.3C50.94,2.69,33.282-4.269,19.485,2.69A28.785,28.785,0,0,0,16.83,4.259C1.625,12.1-4.368,31.008,3.476,46.534A31.746,31.746,0,0,0,31.753,63.992a30.807,30.807,0,0,0,13.918-3.339,29.4,29.4,0,0,0,3.017-1.77A26.319,26.319,0,0,0,61.64,41.828,33.711,33.711,0,0,0,58.824,18.3ZM57.738,40.863A22.591,22.591,0,0,1,46.677,55.424h0l-.2.121c-.04,0-.04.04-.08.04-.04.04-.08.04-.121.08a1.961,1.961,0,0,1-.282.121c-.282.121-.563.282-.845.4-.121.04-.2.08-.322.121a6.706,6.706,0,0,1-.8.322c-.08.04-.161.04-.241.08-.322.121-.6.2-.925.322-.04,0-.08.04-.121.04-10.74,3.178-23.209-2.454-29.686-13.837-.04-.04-.04-.08-.08-.121-.241-.4-.442-.8-.684-1.247-.2-.4-.4-.845-.6-1.247a1.429,1.429,0,0,0-.161-.362c-.121-.322-.282-.6-.4-.925L11,38.972c-.121-.322-.241-.6-.362-.925-.04-.08-.08-.2-.121-.282a9.706,9.706,0,0,1-.322-1.006c-.04-.08-.04-.121-.08-.2-.121-.362-.2-.764-.322-1.126,0-.04,0-.04-.04-.08-2.534-10.016.282-20.233,7.24-26.186a20.4,20.4,0,0,1,1.85-1.408h0c.724-.483,1.488-.925,2.293-1.368A21.558,21.558,0,0,1,30.788,4.1c9.493,0,19.147,5.993,24.255,16.09A28.572,28.572,0,0,1,57.738,40.863Z" transform="translate(0 0)"/>
    <path id="Path_311" data-name="Path 311" d="M52.052,53.188,62.97,50.345h0l1.648-.412h0l.948-.247-.742,1.277a1.7,1.7,0,0,0-.165,1.277,1.689,1.689,0,0,0,3.09.412l2.843-4.82a1.7,1.7,0,0,0,.165-1.277,1.674,1.674,0,0,0-.783-1.03l-4.82-2.843a1.7,1.7,0,0,0-1.277-.165,1.689,1.689,0,0,0-.412,3.09l1.277.742-2.06.536-1.112.33h0L51.187,49.933a10.14,10.14,0,0,0-7.251,12.36l.989,3.832a1.684,1.684,0,0,0,3.255-.865l-.989-3.832A6.816,6.816,0,0,1,52.052,53.188Z" transform="translate(-26.366 -25.639)"/>
    <path id="Path_312" data-name="Path 312" d="M89.909,57.409a1.684,1.684,0,0,0-3.255.865l.989,3.832a6.8,6.8,0,0,1-4.82,8.281l-10.959,2.8h0l-1.648.412h0l-.948.247.742-1.277a1.7,1.7,0,0,0,.165-1.277,1.689,1.689,0,0,0-3.09-.412l-2.8,4.82a1.7,1.7,0,0,0-.165,1.277,1.674,1.674,0,0,0,.783,1.03l4.82,2.843A1.7,1.7,0,0,0,71,81.017a1.689,1.689,0,0,0,.412-3.09l-1.277-.742,2.06-.536,1.071-.288h0l10.382-2.719A10.119,10.119,0,0,0,90.9,61.24Z" transform="translate(-38.735 -33.907)"/>
  </g>
</svg>
