<svg xmlns="http://www.w3.org/2000/svg" viewBox="0 0 64 61">
  <defs>
    <style>
      .cls-1 {
        fill-rule: evenodd;
      }
    </style>
  </defs>
  <path id="ico_home" class="cls-1" d="M63.667,32.527c0,1.694-.336,2.026-2.05,2.026-.807,0-1.546.5-2.05,0h0L32.916,8.216h0L6.265,34.553h0c-.5.6-3.294,0-4.1,0-1.714,0-2.05-.332-2.05-2.026,0-.9-.5-1.428,0-2.026L30.866.112c.6-.5,1.243,0,2.05,0h0c.706.1,1.546-.5,2.05,0h0l12.3,12.156V10.242c0-1.694.336-4.052,2.05-4.052s4.1,2.358,4.1,4.052v8.1L63.667,30.5h0C64.171,31,63.667,31.73,63.667,32.527Zm-4.1,4.052V58.865c0,1.694-2.386,2.026-4.1,2.026h-6.15V36.579h-12.3V60.891H8.315c-1.714,0-2.05-.332-2.05-2.026V36.579L32.916,10.242Zm-32.8,0h-12.3V48.735h12.3Z" transform="translate(0.109 0.109)"/>
</svg>
