<svg xmlns="http://www.w3.org/2000/svg" viewBox="0 0 64 64">
  <path id="ico_info" d="M32,0A32,32,0,1,0,64,32,31.984,31.984,0,0,0,32,0ZM29.24,15.585a7.376,7.376,0,0,1,1.49-3.127,7.035,7.035,0,0,1,3-2.223,5.767,5.767,0,0,1,3.884-.2,3.787,3.787,0,0,1,2.565,2.247,6.347,6.347,0,0,1-.342,5.081,6.945,6.945,0,0,1-3.86,3.811,5.044,5.044,0,0,1-3.908-.024,4.422,4.422,0,0,1-2.589-2.492A5.44,5.44,0,0,1,29.24,15.585Zm6.791,33.05a37.9,37.9,0,0,1-8.159,5.13,6.093,6.093,0,0,1-2.369.464c-.757-.024-1.2-.244-1.368-.66-.244-.611-.1-1.856.44-3.713l2.247-6.571c.122-.464.684-2.443,1.71-5.936s1.441-5.276,1.466-5.4c.147-.66.9-2.345.122-2.027a5.891,5.891,0,0,0-1.856,1.221,26.448,26.448,0,0,0-2.882,2.638l-1.27,1.246-2.467-.147a54.73,54.73,0,0,1,7.328-6.156,33.4,33.4,0,0,1,7.255-4.617c1.539-.611,2.443-.611,2.687.024a6.679,6.679,0,0,1-.366,2.882q-.586,2.345-1.612,5.789c-.684,2.3-1.221,4.079-1.588,5.3-.562,1.466-1.1,3.176-1.637,5.105a9.84,9.84,0,0,0-.635,3.4c.147.391.269.757,1.075.708.684-.049,2.15-.831,4.1-2.687.171-.122.415-.318.757-.586.318-.269.562-.464.684-.562l2.663-.342A61.942,61.942,0,0,1,36.031,48.635Z"/>
</svg>
