<svg xmlns="http://www.w3.org/2000/svg" viewBox="0 0 64 62">
  <defs>
    <style>
      .cls-1 {
        fill-rule: evenodd;
      }
    </style>
  </defs>
  <path id="ico_user" class="cls-1" d="M64,59h0a2.946,2.946,0,0,1-3,3H3a2.946,2.946,0,0,1-3-3H0S0,48.1,8,44.1c5.1-2.5,3.1-.5,9.3-3A77.506,77.506,0,0,0,25,37.6l.1-5.9s-2.3-1.8-3-7.4c-1.5.4-1.9-1.7-2-3.1-.1-1.3-.8-5.4.9-5a35.309,35.309,0,0,1-.5-6.5C20.9,5.1,25.3.3,32,0c8,.3,11.2,5.1,11.6,9.7a47.358,47.358,0,0,1-.5,6.5c1.8-.4,1,3.7.9,5-.1,1.4-.6,3.5-2,3.1-.7,5.6-3,7.3-3,7.3l.1,5.9s1.5.8,7.7,3.4,4.3.6,9.3,3.2C64,48.1,64,59,64,59Z"/>
</svg>
