<svg xmlns="http://www.w3.org/2000/svg" viewBox="0 0 58 64">
  <defs>
    <style>
      .cls-1 {
        fill-rule: evenodd;
      }
    </style>
  </defs>
  <path id="ico_note" class="cls-1" d="M55,64H3a2.946,2.946,0,0,1-3-3V9A2.946,2.946,0,0,1,3,6H8V9A6,6,0,1,0,20,9V6h3V9A6,6,0,1,0,35,9V6h3V9A6,6,0,0,0,50,9V6h5a2.946,2.946,0,0,1,3,3V61A2.946,2.946,0,0,1,55,64ZM47,23H11a3,3,0,0,0,0,6H47a3,3,0,0,0,0-6Zm0,13H11a3,3,0,0,0,0,6H47a3,3,0,0,0,0-6Zm.5,13h-37a2.5,2.5,0,1,0,0,5h37a2.5,2.5,0,1,0,0-5ZM44,12a2.946,2.946,0,0,1-3-3V3a3,3,0,0,1,6,0V9A2.946,2.946,0,0,1,44,12ZM29,12a2.946,2.946,0,0,1-3-3V3a3,3,0,1,1,6,0V9A2.946,2.946,0,0,1,29,12ZM14,12a2.946,2.946,0,0,1-3-3V3a3,3,0,1,1,6,0V9A2.946,2.946,0,0,1,14,12Z"/>
</svg>
