<svg xmlns="http://www.w3.org/2000/svg" viewBox="0 0 64 45.07">
  <defs>
    <style>
      .cls-1 {
        fill-rule: evenodd;
      }
    </style>
  </defs>
  <path id="ico_users" class="cls-1" d="M64,43.167h0a2.009,2.009,0,0,1-2,2H47.174a2.387,2.387,0,0,0,1.9-2.4h0s0-9.014-6.61-12.319a13.658,13.658,0,0,0-4.407-1.5V25.039s-1.5-1.2-2-4.908c-1,.3-1.3-1.1-1.3-2-.1-.9-.6-3.606.6-3.305a25.591,25.591,0,0,1-.3-4.307c.3-3,3.205-6.21,7.712-6.41,5.308.2,7.412,3.405,7.712,6.41a25.589,25.589,0,0,1-.3,4.307c1.2-.2.7,2.5.6,3.305-.1.9-.4,2.3-1.3,2-.5,3.706-2,4.908-2,4.908v3.906a49.768,49.768,0,0,0,5.108,2.3c4.106,1.7,2.8.4,6.21,2.1C64,35.856,64,43.167,64,43.167ZM34.053,29.746c4.507,1.9,3.1.5,6.811,2.3,5.809,2.9,5.809,10.817,5.809,10.817h0a2.223,2.223,0,0,1-2.2,2.2H2.2a2.139,2.139,0,0,1-2.2-2.1H0S0,35.055,5.809,32.15c3.706-1.8,2.3-.3,6.811-2.2s5.609-2.5,5.609-2.5V23.136s-1.7-1.3-2.2-5.308c-1.1.3-1.4-1.2-1.5-2.2s-.6-3.906.7-3.706a23.608,23.608,0,0,1-.4-4.707C15.124,3.906,18.329.4,23.336.1c5.809.3,8.113,3.706,8.513,7.111a23.609,23.609,0,0,1-.4,4.707c1.3-.3.7,2.7.7,3.706-.1,1-.4,2.5-1.5,2.2-.5,4.006-2.2,5.308-2.2,5.308v4.307C28.545,27.343,29.546,27.943,34.053,29.746Z" transform="translate(0 -0.1)"/>
</svg>
