<svg xmlns="http://www.w3.org/2000/svg" viewBox="0 0 64 37.019">
  <defs>
    <style>
      .cls-1 {
        fill-rule: evenodd;
      }
    </style>
  </defs>
  <path id="ico_view" class="cls-1" d="M64.025,18.607h0v.3h0a2.092,2.092,0,0,1-.7,1.3c-.7.8-1.4,1.6-2.1,2.3a56.756,56.756,0,0,1-13.605,10.3,36.672,36.672,0,0,1-10.2,3.7,28.842,28.842,0,0,1-11.7-.2c-6.7-1.5-12.805-5.1-18.107-9.4a43.759,43.759,0,0,1-6.9-6.7,2.478,2.478,0,0,1,0-3.4c.7-.8,1.4-1.6,2.1-2.3A56.756,56.756,0,0,1,16.406,4.2,36.672,36.672,0,0,1,26.61.5a28.842,28.842,0,0,1,11.7.2c6.7,1.4,12.7,5.1,18.107,9.4a43.759,43.759,0,0,1,6.9,6.7,2.39,2.39,0,0,1,.7,1.3h0v.2h0v.3ZM32.012,6a12,12,0,1,0,12,12A12.04,12.04,0,0,0,32.012,6Zm0,18.007a6,6,0,1,1,6-6A6.02,6.02,0,0,1,32.012,24.009Z" transform="translate(-0.025 0.002)"/>
</svg>
