<svg xmlns="http://www.w3.org/2000/svg" viewBox="0 0 64 53.614">
  <g id="ico_report_location" transform="translate(-73 -2332)">
    <g id="Group_324" data-name="Group 324" transform="translate(98.579 2332)">
      <path id="Path_321" data-name="Path 321" d="M91.328,5.033l-.487,1.678-.108.325-.217.7a3.5,3.5,0,0,0-.217.7l-.271.65a3.5,3.5,0,0,0-.217.7c-1.029,3.681-3.519,10.285-7.524,19.921-.541,1.245-1.191,1.786-2.111,1.516l-.7-.162c-.7-.217-.92-1.191-.7-2.923a136.2,136.2,0,0,1,2.815-15.211l.271-1.462c.217-1.353.433-2.328.6-2.977s.271-1.137.325-1.516.162-.65.217-.92l.108-.7L83.425,4,83.7,3.03A4.44,4.44,0,0,1,85.374.378,4.309,4.309,0,0,1,88.73.27l.7.217C91.437.973,92.032,2.489,91.328,5.033Zm-15.1,38.759a4.185,4.185,0,0,1-2.49-1.841,3.359,3.359,0,0,1-.541-2.923l.162-.487a3.226,3.226,0,0,1,2.165-2.382,4.4,4.4,0,0,1,2.815-.271l.7.162a4.094,4.094,0,0,1,2.328,1.786,3.277,3.277,0,0,1,.541,2.869l-.108.379a4.857,4.857,0,0,1-1.624,2.219,3.182,3.182,0,0,1-2.923.65l-.758-.108Z" transform="translate(-73.069 0.002)"/>
    </g>
    <path id="Path_322" data-name="Path 322" d="M63.78,57.639,50.115,38.57a.845.845,0,0,0-.715-.379,1.011,1.011,0,0,0-.678.542l-3.388,6.446H36.489a13.378,13.378,0,0,1-1.129,2.654h9.862l6.4,18.851H12.51l2.71-8.017,3.689-10.834h11.18c-.038-.921,0-1.842.038-2.654H18.8l-3.388-6.446a.938.938,0,0,0-.678-.542.734.734,0,0,0-.715.379L.352,57.639a1.735,1.735,0,0,0-.263,1.083A1.62,1.62,0,0,0,.5,59.7l10.051,9.426h.038c.038,0,.038.054.075.054,0,0,.038,0,.038.054.038,0,.038.054.075.054H53.39c.038,0,.038,0,.075-.054,0,0,.038,0,.038-.054.038,0,.038-.054.075-.054h.038L63.667,59.7a1.62,1.62,0,0,0,.414-.975A1.754,1.754,0,0,0,63.78,57.639ZM10.666,66.089,2.46,58.4,14.543,41.55l2.673,5.092-2.3,6.771Zm42.8,0L46.878,46.642l2.673-5.092L61.634,58.4Z" transform="translate(72.919 2316.329)"/>
  </g>
</svg>
