<svg xmlns="http://www.w3.org/2000/svg" viewBox="0 0 64 57.793">
  <defs>
    <style>
      .cls-1 {
        fill-rule: evenodd;
      }
    </style>
  </defs>
  <path id="ico_clip" class="cls-1" d="M58.169,34.546,36.274,56.83a3.168,3.168,0,0,1-4.644,0,3.3,3.3,0,0,1,0-4.727l21.9-22.284h0a13.688,13.688,0,0,0,0-19.133,13.119,13.119,0,0,0-18.8,0L8.96,36.909a8.05,8.05,0,0,0,0,11.142,7.713,7.713,0,0,0,10.948,0L44.125,23.4a2.2,2.2,0,0,0,0-3.151,2.112,2.112,0,0,0-3.1,0L20.682,40.961a3.168,3.168,0,0,1-4.644,0,3.3,3.3,0,0,1,0-4.727L36.385,15.525a8.767,8.767,0,0,1,12.5,0,9.149,9.149,0,0,1,0,12.718L24.552,52.891a14.174,14.174,0,0,1-20.347,0,14.788,14.788,0,0,1,0-20.709h0L29.971,5.959h0a19.776,19.776,0,0,1,28.2,0,20.5,20.5,0,0,1,0,28.587Z" transform="translate(0.025 -0.05)"/>
</svg>
