<svg xmlns="http://www.w3.org/2000/svg" viewBox="0 0 64 64">
  <defs>
    <style>
      .cls-1 {
        fill-rule: evenodd;
      }
    </style>
  </defs>
  <path id="ico_user_ring" class="cls-1" d="M32,64A32,32,0,1,1,64,32,31.966,31.966,0,0,1,32,64ZM32,6A25.984,25.984,0,0,0,12.7,49.4c3.8-1.8,2.4-.3,7.3-2.3,5-2.1,6.2-2.8,6.2-2.8V39.5s-1.9-1.4-2.5-5.9c-1.2.3-1.6-1.4-1.6-2.5-.1-1.1-.7-4.4.8-4.1a28.694,28.694,0,0,1-.4-5.2c.4-3.7,3.9-7.5,9.5-7.8,6.5.3,9.1,4.1,9.4,7.8A28.137,28.137,0,0,1,41,27c1.4-.3.8,3,.7,4.1s-.5,2.8-1.6,2.5c-.6,4.5-2.5,5.9-2.5,5.9v4.8A60.375,60.375,0,0,0,43.8,47c4.9,2,3.5.6,7.3,2.4A25.367,25.367,0,0,0,58,32,25.948,25.948,0,0,0,32,6Z"/>
</svg>
