<svg xmlns="http://www.w3.org/2000/svg" viewBox="0 0 64 51.975">
  <path id="ico_percent" d="M-871.2,52.051a3.508,3.508,0,0,1-1.284-4.792L-846.528,2.3a3.508,3.508,0,0,1,4.792-1.284,3.508,3.508,0,0,1,1.284,4.792l-25.957,44.959a3.506,3.506,0,0,1-3.041,1.754A3.492,3.492,0,0,1-871.2,52.051Zm-8.658-10.75a9.772,9.772,0,0,1-3.7-1.243,9.775,9.775,0,0,1-2.925-2.58,9.787,9.787,0,0,1-1.651-3.384,9.779,9.779,0,0,1-.262-3.756,9.756,9.756,0,0,1,1.243-3.7,9.756,9.756,0,0,1,2.579-2.924,9.789,9.789,0,0,1,3.384-1.652,9.78,9.78,0,0,1,3.756-.262,9.772,9.772,0,0,1,3.7,1.243,9.762,9.762,0,0,1,2.925,2.58,9.775,9.775,0,0,1,1.651,3.383,9.784,9.784,0,0,1,.262,3.757,9.757,9.757,0,0,1-1.243,3.7,9.76,9.76,0,0,1-2.579,2.925,9.788,9.788,0,0,1-3.384,1.652,9.808,9.808,0,0,1-2.545.337A9.871,9.871,0,0,1-879.859,41.3Zm-2.432-11.854a4.215,4.215,0,0,0,1.541,5.75A4.214,4.214,0,0,0-875,33.656a4.215,4.215,0,0,0-1.541-5.75,4.183,4.183,0,0,0-2.1-.563A4.213,4.213,0,0,0-882.291,29.447Zm46.784,1.818a9.774,9.774,0,0,1-3.7-1.243,9.763,9.763,0,0,1-2.925-2.58,9.8,9.8,0,0,1-1.651-3.384,9.815,9.815,0,0,1-.262-3.756,9.748,9.748,0,0,1,1.244-3.7,9.749,9.749,0,0,1,2.579-2.925,9.789,9.789,0,0,1,3.384-1.652,9.78,9.78,0,0,1,3.756-.262,9.772,9.772,0,0,1,3.7,1.243,9.763,9.763,0,0,1,2.925,2.58,9.8,9.8,0,0,1,1.651,3.384,9.78,9.78,0,0,1,.262,3.756,9.752,9.752,0,0,1-1.243,3.7,9.761,9.761,0,0,1-2.579,2.925A9.789,9.789,0,0,1-831.75,31a9.808,9.808,0,0,1-2.545.337A9.825,9.825,0,0,1-835.507,31.265Zm-2.431-11.854a4.215,4.215,0,0,0,1.541,5.75,4.214,4.214,0,0,0,5.75-1.541,4.214,4.214,0,0,0-1.541-5.749,4.185,4.185,0,0,0-2.1-.563A4.21,4.21,0,0,0-837.938,19.411Z" transform="translate(888.469 -0.547)"/>
</svg>
