<svg xmlns="http://www.w3.org/2000/svg" viewBox="0 0 61.083 62.017">
  <g id="ico_gift" transform="translate(0 -0.007)">
    <path id="Path_315" data-name="Path 315" d="M61.082,43.791A2.417,2.417,0,0,0,58.555,41.3H2.527A2.378,2.378,0,0,0,0,43.791v3.646a1.893,1.893,0,0,0,.072.65A2.408,2.408,0,0,0,2.6,49.928H58.375a2.433,2.433,0,0,0,2.671-2.671C61.082,46.1,61.082,44.946,61.082,43.791Z" transform="translate(0 -26.386)"/>
    <path id="Path_316" data-name="Path 316" d="M60.615,74.5H10.363a2.387,2.387,0,0,0-2.527,2.527c0,9.927.036,19.855-.036,29.818a2.606,2.606,0,0,0,2.744,2.78q12.455-.054,24.91-.036H60.507a2.39,2.39,0,0,0,2.6-2.455V77.027A2.34,2.34,0,0,0,60.615,74.5ZM32.854,105.293H12.71c-.4,0-.505-.072-.505-.505V79.3c0-.433.144-.505.505-.505H32.854c.433,0,.505.144.505.541v25.378C33.359,105.149,33.287,105.293,32.854,105.293Zm25.993-.469c0,.361-.072.469-.469.469H38.2c-.4,0-.505-.108-.505-.505V79.337c0-.4.108-.541.542-.541H58.377c.4,0,.505.108.505.505C58.846,87.821,58.846,96.3,58.846,104.824Z" transform="translate(-4.984 -47.601)"/>
    <path id="Path_317" data-name="Path 317" d="M51.92,8.488A4.737,4.737,0,0,0,56.9,13.47h14.26a4.6,4.6,0,0,0,4.693-4.043,37.5,37.5,0,0,0,.036-6.678A3.021,3.021,0,0,0,72.606.041,10.733,10.733,0,0,0,64.159,5.2c-.181.253-.253.325-.433,0A11.064,11.064,0,0,0,55.964.077a3.309,3.309,0,0,0-4.079,3.466C51.993,5.167,51.92,6.827,51.92,8.488Zm15.668-3.5a7.156,7.156,0,0,1,4.838-2.094c.578-.036.65.036.65.614V8.56a1.87,1.87,0,0,1-2.058,2.022H65.747c-.325,0-.4-.072-.4-.4A7.179,7.179,0,0,1,67.588,4.986ZM55.35,2.856a7.44,7.44,0,0,1,7.04,6.317c.144,1.408.144,1.408-1.264,1.408H56.794A1.86,1.86,0,0,1,54.772,8.56V3.434C54.772,3,54.917,2.856,55.35,2.856Z" transform="translate(-33.148)"/>
  </g>
</svg>
