<svg xmlns="http://www.w3.org/2000/svg" viewBox="0 0 56.12 56.12">
  <defs>
    <style>
      .cls-1 {
        fill-rule: evenodd;
      }
    </style>
  </defs>
  <path id="ico_close_ring" class="cls-1" d="M28.06,56.12A28.06,28.06,0,1,1,56.12,28.06,28.03,28.03,0,0,1,28.06,56.12Zm0-50.859a22.8,22.8,0,1,0,22.8,22.8A22.753,22.753,0,0,0,28.06,5.261Zm9.646,35.075a2.388,2.388,0,0,1-1.841-.789h0l-7.8-7.8-7.8,7.8h0a2.388,2.388,0,0,1-1.841.789,2.584,2.584,0,0,1-2.631-2.631,2.388,2.388,0,0,1,.789-1.841h0l7.8-7.8-7.8-7.8h0a2.388,2.388,0,0,1-.789-1.841,2.584,2.584,0,0,1,2.631-2.631,2.388,2.388,0,0,1,1.841.789h0l7.8,7.8,7.8-7.8h0a2.734,2.734,0,0,1,1.841-.789,2.584,2.584,0,0,1,2.631,2.631,2.388,2.388,0,0,1-.789,1.841h0l-7.8,7.8,7.8,7.8h0a2.734,2.734,0,0,1,.789,1.841A2.584,2.584,0,0,1,37.706,40.336Z"/>
</svg>
