<svg id="ico_help" xmlns="http://www.w3.org/2000/svg" viewBox="0 0 63.834 63.834">
  <path id="Path_296" data-name="Path 296" d="M31.917,0A31.917,31.917,0,1,0,63.834,31.917,31.883,31.883,0,0,0,31.917,0Zm0,57.85A25.933,25.933,0,1,1,57.85,31.917,25.881,25.881,0,0,1,31.917,57.85Z"/>
  <path id="Path_297" data-name="Path 297" d="M38.1,14.245a8.992,8.992,0,0,0-3.45-1.585,15.9,15.9,0,0,0-4.289-.559,19.34,19.34,0,0,0-4.662.559,13.869,13.869,0,0,0-4.2,1.772v7.553a11.286,11.286,0,0,1,4.01-2.424,11.045,11.045,0,0,1,4.01-.839A5.28,5.28,0,0,1,31.2,19a3.833,3.833,0,0,1,1.212.746,2.378,2.378,0,0,1,.746,1.119,3.742,3.742,0,0,1,.28,1.4,5.28,5.28,0,0,1-.28,1.678,5.112,5.112,0,0,1-.746,1.4,16.208,16.208,0,0,1-1.212,1.4c-.466.466-1.026.932-1.678,1.492-.559.466-1.119,1.026-1.585,1.492a6.126,6.126,0,0,0-1.119,1.585,5.773,5.773,0,0,0-.653,1.772,14.134,14.134,0,0,0-.186,2.145,8.021,8.021,0,0,0,.093,1.492,6.984,6.984,0,0,0,.373,1.492h6.621a3.447,3.447,0,0,1-.466-1.026,5.458,5.458,0,0,1-.186-1.212,8.211,8.211,0,0,1,.186-1.585,5.7,5.7,0,0,1,.653-1.305,6.624,6.624,0,0,1,1.119-1.212c.466-.373.932-.839,1.585-1.305.839-.746,1.678-1.4,2.331-2.051a12.137,12.137,0,0,0,1.679-2.145,10.421,10.421,0,0,0,1.026-2.331,8.836,8.836,0,0,0,.373-2.8,9.2,9.2,0,0,0-.839-4.1A9.317,9.317,0,0,0,38.1,14.245Z" transform="translate(0.957 -0.897)"/>
  <path id="Path_298" data-name="Path 298" d="M31.047,43a5.615,5.615,0,0,0-3.922,1.416A4.467,4.467,0,0,0,25.6,47.793a4.881,4.881,0,0,0,1.525,3.486A5.268,5.268,0,0,0,31.047,52.7,5.177,5.177,0,0,0,34.86,51.28a4.53,4.53,0,0,0,1.525-3.486,4.3,4.3,0,0,0-1.525-3.377A5.013,5.013,0,0,0,31.047,43Z" transform="translate(1.503 -1.751)"/>
</svg>
